<svg width="20" height="20" viewBox="0 0 20 20" fill="none" xmlns="http://www.w3.org/2000/svg">
<path fill-rule="evenodd" clip-rule="evenodd" d="M10 20C15.5228 20 20 15.5228 20 10C20 4.47715 15.5228 0 10 0C4.47715 0 0 4.47715 0 10C0 15.5228 4.47715 20 10 20ZM8.27522 13.0771C8.37818 13.1198 8.48854 13.1417 8.59999 13.1417C8.71144 13.1417 8.82181 13.1198 8.92476 13.0771C9.02772 13.0344 9.12125 12.9719 9.19999 12.893L13.823 8.27066C13.9167 8.17689 13.9694 8.04974 13.9694 7.91716C13.9694 7.78458 13.9167 7.65742 13.823 7.56366C13.7292 7.46992 13.6021 7.41726 13.4695 7.41726C13.3369 7.41726 13.2098 7.46992 13.116 7.56366L8.59999 12.0797L6.89299 10.3727C6.79923 10.2789 6.67207 10.2263 6.53949 10.2263C6.40691 10.2263 6.27976 10.2789 6.18599 10.3727C6.09226 10.4664 6.0396 10.5936 6.0396 10.7262C6.0396 10.8587 6.09226 10.9859 6.18599 11.0797L7.99999 12.893C8.07874 12.9719 8.17226 13.0344 8.27522 13.0771Z" fill="white"/>
</svg>
