<svg width="44" height="44" viewBox="0 0 44 44" fill="none" xmlns="http://www.w3.org/2000/svg">
<path d="M44 15.3241C44 13.0155 42.1218 11.1373 39.8132 11.1373C37.5047 11.1373 35.6268 13.0155 35.6268 15.3241C35.6268 16.4339 36.0615 17.4436 36.7692 18.1936C35.5107 19.6015 33.6831 20.4901 31.6508 20.4901C28.3611 20.4901 25.6057 18.1644 24.939 15.0713C25.7087 14.3116 26.1868 13.2572 26.1868 12.093C26.1868 9.78445 24.3086 7.90625 22 7.90625C19.6914 7.90625 17.8132 9.78445 17.8132 12.093C17.8132 13.2572 18.2916 14.3116 19.061 15.0713C18.3943 18.1644 15.6389 20.4901 12.3492 20.4901C10.3169 20.4901 8.48935 19.6015 7.23083 18.1936C7.93848 17.4436 8.37354 16.4339 8.37354 15.3241C8.37354 13.0155 6.49533 11.1373 4.18677 11.1373C1.8782 11.1373 0 13.0155 0 15.3241C0 17.3248 1.41092 19.0013 3.28979 19.4128C3.73526 23.0893 4.67889 27.7286 6.67493 30.8845V34.75C6.67493 35.4657 7.255 36.0461 7.9707 36.0461H36.0293C36.745 36.0461 37.3251 35.4657 37.3251 34.75V30.8845C39.3211 27.7286 40.2647 23.0897 40.7102 19.4128C42.5891 19.0009 44 17.3248 44 15.3241V15.3241ZM38.2184 15.3241C38.2184 14.4445 38.9337 13.7289 39.8132 13.7289C40.6927 13.7289 41.4084 14.4445 41.4084 15.3241C41.4084 16.2036 40.6927 16.9189 39.8132 16.9189C38.9337 16.9189 38.2184 16.2036 38.2184 15.3241ZM20.4048 12.093C20.4048 11.2135 21.1205 10.4978 22 10.4978C22.8795 10.4978 23.5949 11.2135 23.5949 12.093C23.5949 12.9725 22.8795 13.6879 22 13.6879C21.1205 13.6879 20.4048 12.9725 20.4048 12.093V12.093ZM2.59155 15.3241C2.59155 14.4445 3.30725 13.7289 4.18677 13.7289C5.06628 13.7289 5.78165 14.4445 5.78165 15.3241C5.78165 16.2036 5.06628 16.9189 4.18677 16.9189C3.30725 16.9189 2.59155 16.2036 2.59155 15.3241ZM9.26648 33.4542V31.7949H34.7335V33.4542H9.26648ZM35.3173 29.203H8.68304C7.31912 26.8894 6.53595 23.6392 6.08679 20.7059C7.7562 22.1836 9.94962 23.0816 12.3492 23.0816C16.6568 23.0816 20.3004 20.1869 21.4387 16.2408C21.6223 16.2657 21.8097 16.2794 22 16.2794C22.1903 16.2794 22.3777 16.2657 22.5613 16.2408C23.6996 20.1869 27.3432 23.0816 31.6508 23.0816C34.0511 23.0816 36.2458 22.183 37.9152 20.7039C37.4664 23.6368 36.6832 26.8867 35.3173 29.203Z" fill="#00F0FF"/>
</svg>
