<svg width="44" height="44" viewBox="0 0 44 44" fill="none" xmlns="http://www.w3.org/2000/svg">
<path d="M37.7042 18.897H29.0465C28.6241 18.8969 28.2092 19.0074 27.8431 19.2177C27.477 19.428 27.1726 19.7306 26.9603 20.0953C26.3696 21.1596 25.6175 22.1262 24.7306 22.9606C24.5894 23.0889 24.4901 23.2566 24.4455 23.4419C24.4009 23.6273 24.4132 23.8218 24.4807 24.0001C24.5481 24.1785 24.6677 24.3324 24.8239 24.442C24.9801 24.5516 25.1657 24.6118 25.3565 24.6147H37.7042C38.0846 24.6147 38.4494 24.4637 38.7183 24.1951C38.9873 23.9264 39.1384 23.562 39.1384 23.182V20.3557C39.1419 20.1654 39.1074 19.9763 39.0368 19.7995C38.9663 19.6226 38.8612 19.4616 38.7277 19.3258C38.5941 19.19 38.4349 19.0821 38.2591 19.0085C38.0834 18.9349 37.8947 18.897 37.7042 18.897V18.897ZM42.4894 8.39948H23.7788C23.5916 8.40055 23.4089 8.45672 23.2536 8.56097C23.0982 8.66521 22.977 8.81291 22.9052 8.98557C22.8304 9.15994 22.8103 9.35288 22.8475 9.53891C22.8848 9.72493 22.9776 9.8953 23.1138 10.0275L26.53 13.4268C26.7516 13.6506 27.0156 13.8281 27.3067 13.9488C27.5977 14.0696 27.9099 14.1312 28.225 14.1302H42.4894C42.8698 14.1302 43.2346 13.9792 43.5036 13.7105C43.7725 13.4419 43.9236 13.0775 43.9236 12.6975V9.83215C43.9236 9.45218 43.7725 9.08778 43.5036 8.8191C43.2346 8.55042 42.8698 8.39948 42.4894 8.39948V8.39948ZM32.932 29.4727H20.4539C20.2003 29.4727 19.9568 29.5724 19.7762 29.7504C19.5957 29.9283 19.4925 30.1701 19.4891 30.4235V34.2526C19.4925 34.506 19.5957 34.7478 19.7762 34.9257C19.9568 35.1037 20.2003 35.2034 20.4539 35.2034H32.932C33.1203 35.2034 33.3068 35.1663 33.4809 35.0943C33.6549 35.0223 33.813 34.9168 33.9462 34.7838C34.0794 34.6507 34.185 34.4928 34.2571 34.319C34.3292 34.1452 34.3663 33.9589 34.3663 33.7707V30.9054C34.3663 30.5254 34.2151 30.161 33.9462 29.8923C33.6772 29.6237 33.3124 29.4727 32.932 29.4727ZM21.3797 19.3398H15.0037V36.9356C15.0037 37.3156 14.8526 37.68 14.5837 37.9487C14.3147 38.2173 13.9499 38.3683 13.5695 38.3683H9.7361C9.35572 38.3683 8.99091 38.2173 8.72193 37.9487C8.45296 37.68 8.30185 37.3156 8.30185 36.9356V19.2747H1.92591C1.55377 19.2593 1.19407 19.1365 0.890209 18.9214C0.586345 18.7062 0.351306 18.4079 0.213454 18.0622C0.0756021 17.7166 0.0408282 17.3385 0.113329 16.9736C0.185829 16.6087 0.362506 16.2725 0.622038 16.0056L9.74914 6.95379C10.0143 6.68396 10.3309 6.47 10.6803 6.32458C11.0297 6.17917 11.4047 6.10525 11.7832 6.10722C12.1614 6.10743 12.5358 6.18234 12.8848 6.32763C13.2339 6.47291 13.5508 6.68572 13.8172 6.95379L22.9443 16.0708C23.2143 16.3401 23.3977 16.6838 23.471 17.0578C23.5442 17.4318 23.5041 17.8192 23.3556 18.1703C23.2072 18.5214 22.9572 18.8203 22.6377 19.0287C22.3182 19.237 21.9437 19.3454 21.5622 19.3398H21.3797Z" fill="#00F0FF"/>
</svg>
