<svg width="44" height="44" viewBox="0 0 44 44" fill="none" xmlns="http://www.w3.org/2000/svg">
<g id="incoming-message 1" clip-path="url(#clip0)">
<path id="Vector" d="M33.6875 44H10.3125C4.62619 44 0 39.3738 0 33.6875V19.1641C0 13.4777 4.62619 8.85156 10.3125 8.85156H17.1875C18.1368 8.85156 18.9062 9.62105 18.9062 10.5703C18.9062 11.5196 18.1368 12.2891 17.1875 12.2891H10.3125C6.52163 12.2891 3.4375 15.3732 3.4375 19.1641V33.6875C3.4375 37.4784 6.52163 40.5625 10.3125 40.5625H33.6875C37.4784 40.5625 40.5625 37.4784 40.5625 33.6875V23.8047C40.5625 22.8554 41.332 22.0859 42.2812 22.0859C43.2305 22.0859 44 22.8554 44 23.8047V33.6875C44 39.3738 39.3738 44 33.6875 44ZM28.2559 29.8545L31.1224 27.6621C31.8763 27.0854 32.0201 26.0067 31.4433 25.2527C30.8667 24.4988 29.7879 24.3551 29.0339 24.9318L26.1693 27.1228C23.7145 28.9951 20.2855 28.9952 17.8287 27.1213L9.63411 20.8898C8.87855 20.3151 7.80029 20.4619 7.22563 21.2175C6.65105 21.9731 6.79774 23.0514 7.55339 23.626L15.746 29.8561C17.5869 31.2601 19.793 31.9622 21.9994 31.9622C24.2064 31.9621 26.4136 31.2597 28.2559 29.8545ZM44 10.8281C44 4.85745 39.1426 0 33.1719 0C27.2012 0 22.3438 4.85745 22.3438 10.8281C22.3438 16.7988 27.2012 21.6562 33.1719 21.6562C39.1426 21.6562 44 16.7988 44 10.8281ZM40.5625 10.8281C40.5625 14.9033 37.247 18.2188 33.1719 18.2188C29.0967 18.2188 25.7812 14.9033 25.7812 10.8281C25.7812 6.75297 29.0967 3.4375 33.1719 3.4375C37.247 3.4375 40.5625 6.75297 40.5625 10.8281ZM34.8906 13.4922V8.16406C34.8906 7.2148 34.1211 6.44531 33.1719 6.44531H31.4531C30.5039 6.44531 29.7344 7.2148 29.7344 8.16406C29.7344 9.11333 30.5039 9.88281 31.4531 9.88281V13.4922C31.4531 14.4415 32.2226 15.2109 33.1719 15.2109C34.1211 15.2109 34.8906 14.4415 34.8906 13.4922Z" fill="#00F0FF"/>
</g>
<defs>
<clipPath id="clip0">
<rect width="44" height="44" fill="white"/>
</clipPath>
</defs>
</svg>
