<svg width="44" height="44" viewBox="0 0 44 44" fill="none" xmlns="http://www.w3.org/2000/svg">
<g clip-path="url(#clip0)">
<path d="M39.4167 0.000732422C37.337 0.000732422 35.5775 1.39351 35.0192 3.29494H8.98071C8.42238 1.39351 6.66291 0.000732422 4.58325 0.000732422C2.05603 0.000732422 0 2.05676 0 4.58398V30.8806C0 33.6605 2.26168 35.9222 5.04164 35.9222H22.563V39.7438C22.563 42.0909 24.4724 44.0002 26.8194 44.0002C29.1664 44.0002 31.0758 42.0908 31.0758 39.7438V35.9222H38.9579C41.7379 35.9222 43.9996 33.6605 43.9996 30.8806H44.0001V4.58398C44 2.05676 41.944 0.000732422 39.4167 0.000732422ZM37.4115 4.58398C37.4115 3.47832 38.311 2.57883 39.4167 2.57883C40.5223 2.57883 41.4218 3.47832 41.4218 4.58398V26.7596C40.8158 26.4636 40.1353 26.2973 39.4167 26.2973C38.6981 26.2973 38.0175 26.4636 37.4115 26.7596V4.58398ZM2.57809 4.58398C2.57809 3.47832 3.47759 2.57883 4.58325 2.57883C5.68891 2.57883 6.58841 3.47832 6.58841 4.58398V26.7596C5.98238 26.4636 5.30185 26.2973 4.58325 26.2973C3.86456 26.2973 3.18403 26.4636 2.57809 26.7596V4.58398ZM25.1411 21.9396H28.4977V35.1128H25.1411V21.9396ZM28.4977 19.3615H25.1411V18.7345L26.8194 16.446L28.4977 18.7345V19.3615ZM25.5304 13.8442L22.563 17.8906V18.3317C22.0866 18.2078 21.5875 18.141 21.0728 18.141C19.5991 18.141 18.2501 18.6813 17.2102 19.5727H15.2108V11.731H25.5304V13.8442ZM21.0728 20.7192C21.608 20.7192 22.1133 20.8464 22.563 21.0698V27.0998C22.1134 27.3231 21.608 27.4504 21.0728 27.4504C19.217 27.4504 17.7071 25.9406 17.7071 24.0848C17.7071 22.229 19.217 20.7192 21.0728 20.7192ZM26.8194 41.4221C25.894 41.4221 25.1411 40.6691 25.1411 39.7438V37.6909H28.4977V39.7438C28.4977 40.6691 27.7449 41.4221 26.8194 41.4221ZM38.9578 33.3441H31.0758V17.8906L28.1084 13.8442V9.15306H12.6327V22.1509H15.4538C15.2444 22.7577 15.129 23.4079 15.129 24.0849C15.129 27.3622 17.7954 30.0286 21.0728 30.0286C21.5875 30.0286 22.0866 29.9618 22.563 29.8379V33.3442H5.04164C3.68324 33.3441 2.57809 32.2389 2.57809 30.8806C2.57809 29.7749 3.47759 28.8754 4.58325 28.8754C5.68891 28.8754 6.58841 29.7749 6.58841 30.8806H9.1665V5.87303H34.8334V30.8806H37.4115C37.4115 29.7749 38.311 28.8754 39.4167 28.8754C40.5157 28.8754 41.4106 29.7642 41.4214 30.8607V30.8806C41.4214 32.2389 40.3162 33.3441 38.9578 33.3441Z" fill="#00F0FF"/>
</g>
<defs>
<clipPath id="clip0">
<rect width="44" height="44" fill="white"/>
</clipPath>
</defs>
</svg>
