<svg width="44" height="44" viewBox="0 0 44 44" fill="none" xmlns="http://www.w3.org/2000/svg">
<path d="M42.5649 28.8062C43.4688 26.0636 43.8168 23.1683 43.5885 20.2896C43.3601 17.4109 42.56 14.6066 41.235 12.0408C42.1583 10.5571 42.6251 9.17327 42.6251 7.90621C42.6262 6.54824 42.2439 5.21754 41.5222 4.0672C40.8006 2.91686 39.7688 1.99361 38.5457 1.40367C37.3225 0.813721 35.9577 0.581043 34.6082 0.732403C33.2587 0.883762 31.9793 1.41301 30.9173 2.25926C27.7349 0.824965 24.2534 0.179917 20.7684 0.378902C17.2835 0.577886 13.898 1.61502 10.8996 3.40223C9.80024 2.89995 8.5923 2.68193 7.38671 2.76821C6.18113 2.85449 5.01654 3.24229 3.99991 3.896C2.98327 4.54971 2.14718 5.44837 1.56841 6.50946C0.989646 7.57054 0.686755 8.76004 0.687558 9.96871C0.687558 11.1651 1.10375 12.4658 1.92755 13.8562C0.876229 16.4423 0.338314 19.2083 0.343808 22C0.101465 33.6295 10.3599 43.902 22.0001 43.6562C31.1381 43.7636 39.778 37.5279 42.5649 28.8062ZM41.5938 22C41.5946 23.5298 41.4168 25.0544 41.0639 26.543L39.9167 25.3958C39.7648 25.2438 39.5691 25.1431 39.3571 25.1077L35.6395 24.4881L34.8821 23.4791C34.6492 22.844 34.3281 22.2448 33.9282 21.6992L33.417 17.1009L33.8507 16.884C34.3846 17.3544 34.7424 17.6339 34.7732 17.6575C34.9542 17.7982 35.177 17.8747 35.4063 17.8747C35.6356 17.8747 35.8584 17.7982 36.0394 17.6575C37.1947 16.7298 38.2738 15.7112 39.2666 14.6114C39.4733 14.3818 39.6705 14.154 39.8583 13.9281C41.002 16.4654 41.5936 19.2168 41.5938 22ZM39.1072 31.5605L38.7909 30.6113C38.7334 30.4389 38.6313 30.2847 38.495 30.1643C38.3587 30.044 38.193 29.9619 38.0148 29.9262L34.4266 29.2087C34.9097 28.2672 35.1967 27.3711 35.2876 26.5205L38.6919 27.0877L40.3874 28.7833C40.0341 29.7411 39.606 30.6697 39.1072 31.5605ZM31.546 14.6117C31.7866 14.8787 32.026 15.133 32.2602 15.3731L31.8514 15.5776C31.6627 15.6719 31.5075 15.8219 31.4067 16.0072C31.3058 16.1925 31.2643 16.4042 31.2876 16.6139L31.6257 19.6556C30.7842 19.183 29.8564 18.8843 28.8973 18.7771C27.9381 18.6699 26.9672 18.7563 26.0421 19.0314C25.117 19.3064 24.2566 19.7644 23.5118 20.3782C22.7671 20.9921 22.1532 21.7492 21.7065 22.6047L20.3201 22.3905L16.74 20.0038L16.3046 17.8264L18.5156 16.9419L20.8514 18.1098C21.0593 18.2138 21.2962 18.2444 21.5237 18.1968C21.7513 18.1493 21.956 18.0262 22.1048 17.8476L25.4041 13.8883L29.4656 11.8576C30.0698 12.8398 30.7664 13.762 31.546 14.6117ZM28.0999 20.7949C29.467 20.7965 30.7776 21.3402 31.7442 22.3069C32.7109 23.2735 33.2546 24.5841 33.2562 25.9512C33.2562 28.5798 29.9663 31.9508 28.0999 33.5541C26.2331 31.9505 22.9437 28.5796 22.9437 25.9512C22.9452 24.5842 23.4889 23.2736 24.4555 22.3069C25.4221 21.3403 26.7327 20.7965 28.0997 20.7949H28.0999ZM35.4063 2.74996C36.7734 2.75151 38.084 3.29525 39.0506 4.2619C40.0173 5.22855 40.561 6.53916 40.5626 7.90621C40.5626 10.5349 37.2728 13.9059 35.4063 15.5091C33.283 13.649 30.301 10.5458 30.2501 7.90621C30.2516 6.53916 30.7953 5.22855 31.762 4.2619C32.7286 3.29525 34.0393 2.75151 35.4063 2.74996ZM22.0001 2.40621C24.5479 2.39997 27.0721 2.89521 29.4287 3.86371C28.6184 5.05599 28.1859 6.46465 28.1876 7.90621C28.1965 8.62031 28.3268 9.32768 28.5729 9.9981L24.2889 12.1401C24.1616 12.2037 24.0489 12.293 23.9578 12.4023L21.0432 15.8999L19.0237 14.8902C18.8934 14.825 18.7509 14.7882 18.6054 14.7822C18.4599 14.7761 18.3147 14.801 18.1795 14.855L14.742 16.23C14.5183 16.3195 14.3329 16.4846 14.2181 16.6965C14.1034 16.9084 14.0665 17.1539 14.1138 17.3902L14.8013 20.8277C14.8279 20.9605 14.8804 21.0867 14.9557 21.1993C15.0311 21.3118 15.1279 21.4084 15.2406 21.4835L19.3656 24.2335C19.4904 24.3167 19.6319 24.3717 19.7801 24.3945L21.0124 24.5849C20.9253 25.0351 20.8813 25.4927 20.881 25.9513C20.8832 26.3846 20.9339 26.8162 21.0323 27.2382L14.2948 23.8694L11.9121 22.0825L10.811 17.68C11.1204 17.3706 11.4431 17.0337 11.7666 16.6745C13.9952 14.198 15.1251 11.942 15.1251 9.96871C15.1253 8.97691 14.9207 7.99576 14.5239 7.08678C14.1271 6.17781 13.5468 5.36062 12.8194 4.68648C15.6467 3.18603 18.7993 2.403 22.0001 2.40621ZM7.90631 4.81246C9.27336 4.81401 10.584 5.35775 11.5506 6.3244C12.5173 7.29105 13.061 8.60166 13.0626 9.96871C13.0626 12.1318 10.8351 14.7969 9.00631 16.5666C8.96672 16.5995 8.92964 16.6353 8.89536 16.6736C8.54225 17.0114 8.20606 17.3145 7.90708 17.5716C6.03949 15.9681 2.75006 12.5972 2.75006 9.96871C2.75161 8.60166 3.29535 7.29105 4.262 6.3244C5.22865 5.35775 6.53926 4.81401 7.90631 4.81246ZM2.68784 25.3133L3.36245 26.0543C3.49935 26.2047 3.67767 26.3113 3.87498 26.3606L6.34328 26.9776C7.08234 27.7417 7.77078 28.5867 7.91061 28.9069C7.99414 29.966 9.3003 30.3809 10.75 30.7434C11.4617 30.9214 12.165 31.0585 12.5633 31.1315L13.8265 32.3948L12.1783 35.1419C12.111 35.254 12.0656 35.3779 12.0446 35.507L11.5475 38.5653C9.2263 37.0986 7.23851 35.1613 5.71246 32.8787C4.18641 30.5961 3.15603 28.0188 2.68784 25.3133ZM13.4634 39.6343L14.0487 36.0336L16.0094 32.7658C16.1277 32.5686 16.1768 32.3375 16.1488 32.1093C16.1207 31.881 16.0172 31.6687 15.8547 31.506L13.7922 29.4435C13.6402 29.2916 13.4446 29.1909 13.2327 29.1555C11.8603 28.9264 10.4156 28.5588 9.887 28.3143C9.71735 27.8119 9.19761 26.9114 7.60467 25.3185C7.47251 25.1863 7.3069 25.0926 7.12557 25.0472L4.67815 24.4353L2.40708 21.9408C2.40982 19.8874 2.73692 17.8472 3.37629 15.8958C3.58752 16.1529 3.81076 16.4123 4.046 16.6742C5.03878 17.7739 6.11796 18.7926 7.27321 19.7202C8.00737 20.183 8.3873 19.8813 9.08348 19.2733L9.99957 22.9373C10.057 23.1671 10.1918 23.3702 10.3813 23.5125L13.1313 25.575C13.1808 25.6121 13.2336 25.6447 13.2889 25.6723L19.4592 28.7575L18.9264 31.4226C18.9131 31.4892 18.9063 31.557 18.9063 31.625V35.0625C18.9063 35.254 18.9597 35.4417 19.0603 35.6046C19.161 35.7675 19.3051 35.8992 19.4764 35.9848L23.0313 37.7624V41.25C23.0313 41.3459 23.0447 41.4413 23.0711 41.5336L23.0797 41.5632C22.7212 41.5828 22.3607 41.5935 22.0001 41.5935C19.0427 41.5971 16.1233 40.9271 13.4634 39.6343ZM25.1603 41.338L25.0938 41.1052V37.125C25.0938 36.9334 25.0405 36.7457 24.9398 36.5828C24.8391 36.4199 24.695 36.2882 24.5237 36.2026L20.9688 34.4251V31.7266L21.5601 28.7698C22.1159 29.9913 23.009 31.2868 24.2394 32.6562C25.2322 33.7561 26.3114 34.7748 27.4665 35.7027C27.6476 35.8435 27.8704 35.9199 28.0997 35.9199C28.329 35.9199 28.5518 35.8435 28.7328 35.7027C29.8881 34.775 30.9673 33.7564 31.9602 32.6566C32.4435 32.1197 32.8749 31.5934 33.2544 31.0776L37.0237 31.8313L37.669 33.7669C34.6302 37.8075 30.1494 40.5195 25.1603 41.3377V41.338Z" fill="#00F0FF"/>
<path d="M11.3438 9.96875C11.3438 9.28888 11.1421 8.62427 10.7644 8.05898C10.3867 7.49368 9.84985 7.05309 9.22173 6.79292C8.59361 6.53274 7.90244 6.46467 7.23563 6.5973C6.56882 6.72994 5.95632 7.05733 5.47557 7.53807C4.99483 8.01881 4.66744 8.63132 4.5348 9.29813C4.40217 9.96494 4.47024 10.6561 4.73042 11.2842C4.99059 11.9123 5.43119 12.4492 5.99648 12.8269C6.56177 13.2046 7.22638 13.4062 7.90625 13.4062C8.81762 13.4052 9.69137 13.0427 10.3358 12.3983C10.9802 11.7539 11.3427 10.8801 11.3438 9.96875ZM6.53125 9.96875C6.53125 9.6968 6.61189 9.43096 6.76298 9.20484C6.91407 8.97872 7.12881 8.80249 7.38006 8.69842C7.63131 8.59435 7.90778 8.56712 8.1745 8.62017C8.44123 8.67323 8.68623 8.80418 8.87852 8.99648C9.07082 9.18878 9.20178 9.43378 9.25483 9.7005C9.30789 9.96722 9.28066 10.2437 9.17659 10.4949C9.07252 10.7462 8.89628 10.9609 8.67016 11.112C8.44404 11.2631 8.1782 11.3437 7.90625 11.3437C7.54171 11.3433 7.19223 11.1983 6.93446 10.9405C6.67669 10.6828 6.53168 10.3333 6.53125 9.96875Z" fill="#00F0FF"/>
<path d="M35.4063 11.3438C36.0861 11.3438 36.7507 11.1421 37.316 10.7644C37.8813 10.3867 38.3219 9.84985 38.5821 9.22173C38.8423 8.59361 38.9103 7.90244 38.7777 7.23563C38.6451 6.56882 38.3177 5.95632 37.8369 5.47557C37.3562 4.99483 36.7437 4.66744 36.0769 4.5348C35.4101 4.40217 34.7189 4.47024 34.0908 4.73042C33.4627 4.99059 32.9258 5.43119 32.5481 5.99648C32.1704 6.56177 31.9688 7.22638 31.9688 7.90625C31.9698 8.81762 32.3323 9.69137 32.9767 10.3358C33.6211 10.9802 34.4949 11.3427 35.4063 11.3438ZM35.4063 6.53125C35.6782 6.53125 35.944 6.61189 36.1702 6.76298C36.3963 6.91407 36.5725 7.12881 36.6766 7.38006C36.7807 7.63131 36.8079 7.90778 36.7548 8.1745C36.7018 8.44123 36.5708 8.68623 36.3785 8.87852C36.1862 9.07082 35.9412 9.20178 35.6745 9.25483C35.4078 9.30789 35.1313 9.28066 34.8801 9.17659C34.6288 9.07252 34.4141 8.89628 34.263 8.67016C34.1119 8.44404 34.0313 8.1782 34.0313 7.90625C34.0317 7.54171 34.1767 7.19223 34.4345 6.93446C34.6922 6.67669 35.0417 6.53168 35.4063 6.53125Z" fill="#00F0FF"/>
<path d="M31.5371 22.178C31.5371 21.4981 31.3355 20.8335 30.9578 20.2682C30.5801 19.7029 30.0432 19.2623 29.4151 19.0021C28.787 18.742 28.0958 18.6739 27.429 18.8065C26.7622 18.9392 26.1497 19.2666 25.6689 19.7473C25.1882 20.228 24.8608 20.8405 24.7282 21.5074C24.5955 22.1742 24.6636 22.8653 24.9238 23.4935C25.184 24.1216 25.6245 24.6584 26.1898 25.0362C26.7551 25.4139 27.4197 25.6155 28.0996 25.6155C29.011 25.6145 29.8847 25.252 30.5292 24.6075C31.1736 23.9631 31.5361 23.0894 31.5371 22.178ZM26.7246 22.178C26.7246 21.906 26.8053 21.6402 26.9563 21.4141C27.1074 21.188 27.3222 21.0117 27.5734 20.9076C27.8247 20.8036 28.1011 20.7763 28.3679 20.8294C28.6346 20.8825 28.8796 21.0134 29.0719 21.2057C29.2642 21.398 29.3951 21.643 29.4482 21.9097C29.5013 22.1765 29.474 22.4529 29.37 22.7042C29.2659 22.9554 29.0896 23.1702 28.8635 23.3213C28.6374 23.4723 28.3716 23.553 28.0996 23.553C27.7351 23.5526 27.3855 23.4076 27.1278 23.1498C26.87 22.8921 26.725 22.5425 26.7246 22.178Z" fill="#00F0FF"/>
</svg>
