<svg width="21" height="21" viewBox="0 0 21 21" xmlns="http://www.w3.org/2000/svg">
<path d="M18.7316 12.4041C18.5699 12.0042 18.1145 11.8109 17.7145 11.9727C17.3144 12.1344 17.1212 12.5897 17.283 12.9898L18.2031 15.2658L15.4703 14.0611C15.2725 13.9739 15.0474 13.9726 14.8486 14.0574C13.9147 14.4559 12.9142 14.6579 11.875 14.6579C7.69247 14.6579 4.88283 11.3831 4.88283 8.3245C4.88283 4.83225 8.0195 1.99108 11.875 1.99108C15.7305 1.99108 18.8672 4.83225 18.8672 8.3245C18.8672 8.59696 18.8418 8.92321 18.7976 9.21954C18.7339 9.6463 19.0283 10.0438 19.455 10.1075C19.8818 10.1713 20.2794 9.87684 20.343 9.45009C20.3989 9.07548 20.4297 8.67571 20.4297 8.3245C20.4297 6.20224 19.531 4.21092 17.8991 2.71737C16.2865 1.24144 14.1471 0.428589 11.875 0.428589C9.60289 0.428589 7.46352 1.24144 5.85091 2.71733C4.39263 4.05202 3.52045 5.78436 3.35127 7.65228C1.51702 8.86696 0.429714 10.8134 0.429714 12.91C0.429714 14.2197 0.84233 15.4623 1.62776 16.5317L0.486667 19.3545C0.367487 19.6492 0.438854 19.9869 0.667174 20.2082C0.815963 20.3525 1.01202 20.4286 1.21112 20.4286C1.31748 20.4285 1.42475 20.4069 1.52608 20.3622L4.81626 18.9118C5.64392 19.2199 6.5188 19.3758 7.42184 19.3758C7.44138 19.3758 7.46055 19.3743 7.47973 19.3729C8.78586 19.363 10.0557 19.0195 11.1554 18.3765C12.1405 17.8006 12.9508 17.0094 13.5189 16.0751C14.0735 15.9755 14.6157 15.825 15.1418 15.6239L19.3333 17.4715C19.4346 17.5162 19.5419 17.538 19.6482 17.538C19.8473 17.5379 20.0434 17.4618 20.1922 17.3176C20.4205 17.0962 20.4919 16.7587 20.3727 16.4639L18.7316 12.4041ZM7.42192 17.8114C7.41126 17.8114 7.40087 17.8125 7.39028 17.813C6.59255 17.8089 5.82474 17.6521 5.10767 17.3462C4.90888 17.2613 4.68377 17.2626 4.48595 17.3499L2.65639 18.1564L3.24658 16.6964C3.35568 16.4265 3.30564 16.1183 3.11682 15.8968C2.38108 15.0336 1.99221 14.0009 1.99221 12.91C1.99221 11.6615 2.5174 10.4786 3.43631 9.58165C3.7224 11.1412 4.52962 12.6331 5.74732 13.805C7.26259 15.2634 9.26688 16.1082 11.4311 16.2099C10.415 17.2101 8.96098 17.8114 7.42192 17.8114Z"/>
<path d="M11.8363 9.13947C12.2678 9.13947 12.6175 8.7897 12.6175 8.35823C12.6175 7.92676 12.2678 7.57698 11.8363 7.57698C11.4048 7.57698 11.0551 7.92676 11.0551 8.35823C11.0551 8.7897 11.4048 9.13947 11.8363 9.13947Z"/>
<path d="M14.9603 9.13947C15.3918 9.13947 15.7416 8.7897 15.7416 8.35823C15.7416 7.92676 15.3918 7.57698 14.9603 7.57698C14.5289 7.57698 14.1791 7.92676 14.1791 8.35823C14.1791 8.7897 14.5289 9.13947 14.9603 9.13947Z"/>
<path d="M8.70996 9.13947C9.14143 9.13947 9.49121 8.7897 9.49121 8.35823C9.49121 7.92676 9.14143 7.57698 8.70996 7.57698C8.27849 7.57698 7.92871 7.92676 7.92871 8.35823C7.92871 8.7897 8.27849 9.13947 8.70996 9.13947Z"/>
</svg>
