<?xml version="1.0" encoding="utf-8"?>
<!-- Generator: Adobe Illustrator 24.1.1, SVG Export Plug-In . SVG Version: 6.00 Build 0)  -->
<svg version="1.1" id="Слой_1" xmlns="http://www.w3.org/2000/svg" xmlns:xlink="http://www.w3.org/1999/xlink" x="0px" y="0px"
	 viewBox="0 0 20 20" style="enable-background:new 0 0 20 20;" xml:space="preserve">
<path class="st0" d="M10,0C4.5,0,0,4.5,0,10s4.5,10,10,10s10-4.5,10-10S15.5,0,10,0z M13.8,8.3l-4.6,4.6C9.1,13,9,13,8.9,13.1
	c-0.1,0-0.2,0.1-0.3,0.1s-0.2,0-0.3-0.1C8.2,13,8.1,13,8,12.9l-1.8-1.8C6.1,11,6,10.9,6,10.7c0-0.1,0.1-0.3,0.1-0.4
	c0.1-0.1,0.2-0.1,0.4-0.1s0.3,0.1,0.4,0.1l1.7,1.7l4.5-4.5c0.1-0.1,0.2-0.1,0.4-0.1c0.1,0,0.3,0.1,0.4,0.1C13.9,7.7,14,7.8,14,7.9
	S13.9,8.2,13.8,8.3z"/>
</svg>
