<svg width="10" height="10" viewBox="0 0 10 10" fill="none" xmlns="http://www.w3.org/2000/svg">
<g opacity="0.75" clip-path="url(#clip0)">
<path d="M5.625 7.91667H2.29167C1.68408 7.916 1.10157 7.67435 0.671944 7.24472C0.242317 6.81509 0.000661737 6.23258 0 5.625L0 2.29167C0.000661737 1.68408 0.242317 1.10157 0.671944 0.671944C1.10157 0.242317 1.68408 0.000661737 2.29167 0L5.625 0C6.23258 0.000661737 6.81509 0.242317 7.24472 0.671944C7.67435 1.10157 7.916 1.68408 7.91667 2.29167V5.625C7.916 6.23258 7.67435 6.81509 7.24472 7.24472C6.81509 7.67435 6.23258 7.916 5.625 7.91667ZM2.29167 1.25C2.0154 1.25 1.75045 1.35975 1.5551 1.5551C1.35975 1.75045 1.25 2.0154 1.25 2.29167V5.625C1.25 5.90127 1.35975 6.16622 1.5551 6.36157C1.75045 6.55692 2.0154 6.66667 2.29167 6.66667H5.625C5.90127 6.66667 6.16622 6.55692 6.36157 6.36157C6.55692 6.16622 6.66667 5.90127 6.66667 5.625V2.29167C6.66667 2.0154 6.55692 1.75045 6.36157 1.5551C6.16622 1.35975 5.90127 1.25 5.625 1.25H2.29167ZM10 7.70833V2.91667C10 2.75091 9.93415 2.59193 9.81694 2.47472C9.69973 2.35751 9.54076 2.29167 9.375 2.29167C9.20924 2.29167 9.05027 2.35751 8.93306 2.47472C8.81585 2.59193 8.75 2.75091 8.75 2.91667V7.70833C8.75 7.9846 8.64025 8.24955 8.4449 8.4449C8.24955 8.64025 7.9846 8.75 7.70833 8.75H2.91667C2.75091 8.75 2.59193 8.81585 2.47472 8.93306C2.35751 9.05027 2.29167 9.20924 2.29167 9.375C2.29167 9.54076 2.35751 9.69973 2.47472 9.81694C2.59193 9.93415 2.75091 10 2.91667 10H7.70833C8.31592 9.99934 8.89843 9.75768 9.32806 9.32806C9.75768 8.89843 9.99934 8.31592 10 7.70833Z"/>
</g>
<defs>
<clipPath id="clip0">
<rect width="10" height="10"/>
</clipPath>
</defs>
</svg>
