<svg width="16" height="16" viewBox="0 0 16 16" fill="none" xmlns="http://www.w3.org/2000/svg">
<path d="M16 5.57239C16 4.73291 15.317 4.04993 14.4775 4.04993C13.6381 4.04993 12.9552 4.73291 12.9552 5.57239C12.9552 5.97595 13.1133 6.34314 13.3706 6.61584C12.913 7.12781 12.2484 7.45093 11.5094 7.45093C10.3131 7.45093 9.31116 6.60522 9.06873 5.48047C9.34863 5.20422 9.52246 4.8208 9.52246 4.39746C9.52246 3.55798 8.83948 2.875 8 2.875C7.16052 2.875 6.47754 3.55798 6.47754 4.39746C6.47754 4.8208 6.65149 5.20422 6.93127 5.48047C6.68884 6.60522 5.68689 7.45093 4.4906 7.45093C3.75159 7.45093 3.08704 7.12781 2.62939 6.61584C2.88672 6.34314 3.04492 5.97595 3.04492 5.57239C3.04492 4.73291 2.36194 4.04993 1.52246 4.04993C0.682983 4.04993 0 4.73291 0 5.57239C0 6.29993 0.513062 6.90955 1.19629 7.0592C1.35828 8.39612 1.70142 10.0831 2.42725 11.2307V12.6364C2.42725 12.8966 2.63818 13.1077 2.89844 13.1077H13.1016C13.3618 13.1077 13.5728 12.8966 13.5728 12.6364V11.2307C14.2986 10.0831 14.6417 8.39624 14.8037 7.0592C15.4869 6.90942 16 6.29993 16 5.57239V5.57239ZM13.8976 5.57239C13.8976 5.25256 14.1577 4.99231 14.4775 4.99231C14.7974 4.99231 15.0576 5.25256 15.0576 5.57239C15.0576 5.89221 14.7974 6.15234 14.4775 6.15234C14.1577 6.15234 13.8976 5.89221 13.8976 5.57239ZM7.41992 4.39746C7.41992 4.07764 7.68018 3.81738 8 3.81738C8.31982 3.81738 8.57996 4.07764 8.57996 4.39746C8.57996 4.71729 8.31982 4.97742 8 4.97742C7.68018 4.97742 7.41992 4.71729 7.41992 4.39746V4.39746ZM0.942383 5.57239C0.942383 5.25256 1.20264 4.99231 1.52246 4.99231C1.84229 4.99231 2.10242 5.25256 2.10242 5.57239C2.10242 5.89221 1.84229 6.15234 1.52246 6.15234C1.20264 6.15234 0.942383 5.89221 0.942383 5.57239ZM3.36963 12.1652V11.5618H12.6304V12.1652H3.36963ZM12.8427 10.6193H3.15747C2.6615 9.77795 2.37671 8.59607 2.21338 7.52942C2.82043 8.06677 3.61804 8.39331 4.4906 8.39331C6.05701 8.39331 7.38196 7.3407 7.7959 5.90576C7.86267 5.91479 7.93079 5.9198 8 5.9198C8.06921 5.9198 8.13733 5.91479 8.2041 5.90576C8.61804 7.3407 9.94299 8.39331 11.5094 8.39331C12.3822 8.39331 13.1803 8.06653 13.7874 7.52869C13.6241 8.59521 13.3394 9.77698 12.8427 10.6193Z" fill="#FFFF70"/>
</svg>
