<svg fill="none" viewBox="0 0 38 30">
  <defs/>
  <g filter="url(#filter0_d)">
    <path fill="#FFFF70" d="M34 10.448a2.858 2.858 0 00-2.855-2.854 2.858 2.858 0 00-2.854 2.854c0 .757.296 1.445.779 1.957a4.67 4.67 0 01-3.49 1.566 4.69 4.69 0 01-4.576-3.695c.525-.518.85-1.237.85-2.03A2.858 2.858 0 0019 5.39a2.858 2.858 0 00-2.855 2.854c0 .794.326 1.513.851 2.03a4.69 4.69 0 01-4.576 3.695 4.67 4.67 0 01-3.49-1.565c.483-.512.78-1.2.78-1.957a2.858 2.858 0 00-2.855-2.854A2.858 2.858 0 004 10.448c0 1.364.962 2.507 2.243 2.788.304 2.507.947 5.67 2.308 7.822v2.635c0 .488.396.884.884.884h19.13a.884.884 0 00.884-.884v-2.635c1.36-2.152 2.004-5.315 2.308-7.822A2.859 2.859 0 0034 10.448zm-3.942 0a1.089 1.089 0 012.175 0 1.089 1.089 0 01-2.175 0zM17.912 8.245A1.089 1.089 0 1119 9.332c-.6 0-1.088-.487-1.088-1.087zM5.767 10.448a1.089 1.089 0 111.088 1.087c-.6 0-1.088-.487-1.088-1.087zm4.551 12.362v-1.132h17.364v1.132H10.318zM28.08 19.91H9.92c-.93-1.577-1.464-3.793-1.77-5.793a6.423 6.423 0 004.27 1.62c2.937 0 5.421-1.974 6.197-4.665a2.859 2.859 0 00.766 0c.776 2.69 3.26 4.665 6.197 4.665a6.422 6.422 0 004.271-1.622c-.306 2-.84 4.216-1.771 5.795z"/>
  </g>
  <defs>
    <filter id="filter0_d" width="38" height="38" x="0" y="-4" color-interpolation-filters="sRGB" filterUnits="userSpaceOnUse">
      <feFlood flood-opacity="0" result="BackgroundImageFix"/>
      <feColorMatrix in="SourceAlpha" result="hardAlpha" values="0 0 0 0 0 0 0 0 0 0 0 0 0 0 0 0 0 0 127 0"/>
      <feOffset/>
      <feGaussianBlur stdDeviation="2"/>
      <feColorMatrix values="0 0 0 0 1 0 0 0 0 1 0 0 0 0 0.4375 0 0 0 1 0"/>
      <feBlend in2="BackgroundImageFix" result="effect1_dropShadow"/>
      <feBlend in="SourceGraphic" in2="effect1_dropShadow" result="shape"/>
    </filter>
  </defs>
</svg>
