<svg fill="none" viewBox="0 0 14 14">
  <defs/>
  <g clip-path="url(#clip0)">
    <path fill="#F655A0" d="M9.077 7.91l-.84.84.84.84a.875.875 0 01-1.238 1.237L7 9.987l-.84.84A.875.875 0 014.924 9.59l.84-.839-.84-.84A.875.875 0 016.16 6.674l.839.84.84-.84A.875.875 0 119.076 7.91zm3.756-3.152v6.034A3.212 3.212 0 019.625 14h-5.25a3.212 3.212 0 01-3.208-3.208V3.208A3.212 3.212 0 014.375 0h3.7a3.187 3.187 0 012.269.94l1.55 1.55a3.187 3.187 0 01.94 2.268zm-1.75 6.034V5.25H8.75a1.167 1.167 0 01-1.167-1.167V1.75H4.375a1.458 1.458 0 00-1.458 1.458v7.584a1.458 1.458 0 001.458 1.458h5.25a1.458 1.458 0 001.458-1.458z"/>
  </g>
  <defs>
    <clipPath id="clip0">
      <path fill="#fff" d="M0 0h14v14H0z"/>
    </clipPath>
  </defs>
</svg>
