<svg fill="none" viewBox="0 0 14 14">
  <defs/>
  <g clip-path="url(#clip0)">
    <path fill="#00F0FF" d="M11.894 2.49L10.344.94A3.186 3.186 0 008.075 0h-3.7a3.212 3.212 0 00-3.208 3.208v7.584A3.212 3.212 0 004.375 14h5.25a3.211 3.211 0 003.208-3.208V4.758a3.188 3.188 0 00-.94-2.268zm-2.269 9.76h-5.25a1.458 1.458 0 01-1.458-1.458V3.208A1.458 1.458 0 014.375 1.75h3.208v2.333A1.167 1.167 0 008.75 5.25h2.333v5.542a1.458 1.458 0 01-1.458 1.458zm.342-5.561a.875.875 0 01-.03 1.236L7.845 9.917a2.041 2.041 0 01-2.872-.015l-.89-.79A.876.876 0 015.25 7.805l.925.825a.34.34 0 00.242.12c.077 0 .15-.03.206-.085L8.73 6.658a.875.875 0 011.237.03z"/>
  </g>
  <defs>
    <clipPath id="clip0">
      <path fill="#fff" d="M0 0h14v14H0z"/>
    </clipPath>
  </defs>
</svg>
