<svg width="14" height="15" viewBox="0 0 14 15" fill="none" xmlns="http://www.w3.org/2000/svg">
<g clip-path="url(#clip0)">
<path d="M8.95168 14.3623C9.45889 13.2754 10.0633 11.4247 9.21895 10.6267C8.44066 10.7519 7.8113 10.7527 7.29924 10.6295C6.0098 10.3193 5.60165 9.22471 5.95665 7.82299C4.2218 9.52162 4.14856 12.0263 4.79169 14.4381C4.89615 14.8298 4.48686 15.1507 4.16991 14.9244C4.06197 14.8473 1.52673 13.0038 1.52673 10.1649C1.52673 5.51424 6.44783 5.31414 6.44783 0.439909C6.44783 0.0675754 6.85502 -0.136211 7.1215 0.103283C9.08797 1.87069 12.6663 6.11927 12.4655 10.0268C12.3659 11.9639 11.3836 13.6117 9.54593 14.9244C9.19834 15.1726 8.7643 14.7638 8.95168 14.3623Z" fill="#00F0FF"/>
</g>
<defs>
<clipPath id="clip0">
<rect width="14" height="15" fill="white"/>
</clipPath>
</defs>
</svg>
