<svg fill="none" viewBox="0 0 14 14">
  <defs/>
  <g clip-path="url(#clip0)">
    <path d="M9.93 7a7.135 7.135 0 002.3-4.1 2.513 2.513 0 00-.584-2.012A2.554 2.554 0 009.71 0H4.306a2.555 2.555 0 00-2.448 1.832c-.1.347-.125.712-.072 1.07A7.117 7.117 0 004.083 7a7.117 7.117 0 00-2.296 4.098 2.512 2.512 0 00.584 2.013A2.555 2.555 0 004.306 14H9.71a2.554 2.554 0 002.447-1.83c.1-.347.125-.712.072-1.07A7.135 7.135 0 009.93 7zm.39 4.97a.804.804 0 01-.61.28H4.306a.805.805 0 01-.767-.566.758.758 0 01-.022-.325c.196-1.31 1.018-2.545 2.443-3.672a.875.875 0 000-1.373C4.535 5.187 3.713 3.951 3.517 2.642a.758.758 0 01.179-.611.806.806 0 01.61-.281H9.71a.805.805 0 01.767.566.76.76 0 01.023.324c-.195 1.304-1.018 2.54-2.445 3.675a.875.875 0 000 1.37c1.427 1.135 2.25 2.371 2.445 3.675a.756.756 0 01-.18.61z"/>
    <path d="M7.488 8.874l-.172-.137a.508.508 0 00-.63 0l-.175.139a3.82 3.82 0 00-1.225 1.512.507.507 0 00.47.695h2.487a.507.507 0 00.467-.696 3.844 3.844 0 00-1.222-1.513z"/>
  </g>
  <defs>
    <clipPath id="clip0">
      <path fill="#fff" d="M0 0h14v14H0z"/>
    </clipPath>
  </defs>
</svg>
