<svg fill="none" viewBox="0 0 18 18">
  <defs/>
  <path fill="#FEFF98" d="M12.635 12.902a.3.3 0 00-.07.596c3.155.371 4.835 1.372 4.835 1.952 0 .814-3.196 1.95-8.4 1.95-5.204 0-8.4-1.136-8.4-1.95 0-.58 1.68-1.58 4.835-1.952a.3.3 0 00-.07-.596C2.206 13.274 0 14.322 0 15.45 0 16.717 3.091 18 9 18s9-1.283 9-2.55c0-1.128-2.206-2.176-5.365-2.548z"/>
  <path fill="#FEFF98" d="M8.947 16.427l4.602-6.647c1.726-2.301 1.477-6.084-.534-8.095A5.715 5.715 0 008.947 0a5.716 5.716 0 00-4.068 1.685c-2.011 2.01-2.26 5.793-.541 8.086l4.609 6.656zM9 3.6c1.158 0 2.1.942 2.1 2.1 0 1.158-.942 2.1-2.1 2.1-1.158 0-2.1-.942-2.1-2.1 0-1.158.942-2.1 2.1-2.1z"/>
</svg>
