<svg fill="none" viewBox="0 0 20 20">
  <defs/>
  <path fill="#fff" d="M1.875 5.938a.625.625 0 00.625-.625V2.5h2.813a.625.625 0 000-1.25H1.874a.625.625 0 00-.625.625v3.438a.625.625 0 00.625.625zM18.125 5.938a.625.625 0 00.625-.625V1.874a.625.625 0 00-.625-.625h-3.438a.625.625 0 100 1.25H17.5v2.813a.625.625 0 00.625.625zM1.25 18.125a.625.625 0 00.625.625h3.438a.625.625 0 100-1.25H2.5v-2.813a.625.625 0 10-1.25 0v3.438zM14.688 18.75h3.437a.624.624 0 00.625-.625v-3.438a.624.624 0 10-1.25 0V17.5h-2.813a.624.624 0 100 1.25z"/>
</svg>
