<svg fill="none" viewBox="0 0 96 96">
  <defs/>
  <g clip-path="url(#clip0)" filter="url(#filter0_d)">
    <path fill="#fff" d="M52.721.405H43.28c-5.35 0-9.704 4.353-9.704 9.704v21.318c0 7.813 6.356 14.168 14.17 14.168h.512c7.812 0 14.168-6.355 14.168-14.168V10.108c0-5.35-4.352-9.703-9.703-9.703zM48.85 12.317H47.15a.482.482 0 01-.481-.481V8.874c0-.266.216-.481.481-.481h1.699c.265 0 .481.216.481.481v2.962a.483.483 0 01-.481.481zm11.418 19.109c0 6.624-5.388 12.012-12.012 12.012h-.513c-6.623 0-12.012-5.388-12.012-12.012V10.108c0-4.162 3.385-7.547 7.547-7.547h3.644v3.698a2.633 2.633 0 00-2.41 2.615v2.961a2.632 2.632 0 002.41 2.615v3.57c-4.014-.294-6.914-1.73-6.962-1.754a1.078 1.078 0 00-.98 1.921c.243.124 4.135 2.067 9.317 2.067 2.672 0 5.688-.516 8.722-2.067a1.08 1.08 0 00-.982-1.92c-2.38 1.215-4.772 1.701-6.96 1.788V14.45a2.633 2.633 0 002.409-2.615V8.874a2.632 2.632 0 00-2.41-2.615V2.562h3.644c4.162 0 7.547 3.385 7.547 7.546v21.318h.001z"/>
    <g filter="url(#filter1_d)">
      <rect width="1.277" height="6.159" fill="#fff" rx=".638" transform="matrix(.65034 .75964 -.65034 .75964 52.19 66)"/>
    </g>
    <g filter="url(#filter2_d)">
      <rect width="1.277" height="6.361" fill="#fff" rx=".638" transform="scale(-.91971 -1.0743) rotate(-45 -106.569 32.17)"/>
    </g>
    <g opacity=".5">
      <g filter="url(#filter3_d)">
        <rect width="1.277" height="6.159" fill="#fff" rx=".638" transform="scale(.91972 1.0743) rotate(45 -59.657 104.962)"/>
      </g>
      <g filter="url(#filter4_d)">
        <rect width="1.277" height="6.361" fill="#fff" rx=".638" transform="scale(-.91971 -1.0743) rotate(-45 -120.44 26.425)"/>
      </g>
    </g>
    <g opacity=".25">
      <g filter="url(#filter5_d)">
        <rect width="1.277" height="6.159" fill="#fff" rx=".638" transform="scale(.91972 1.0743) rotate(45 -73.528 110.708)"/>
      </g>
      <g filter="url(#filter6_d)">
        <rect width="1.277" height="6.361" fill="#fff" rx=".638" transform="scale(-.91971 -1.0743) rotate(-45 -134.31 20.68)"/>
      </g>
    </g>
  </g>
  <defs>
    <filter id="filter0_d" width="50" height="100.207" x="23" y="-2" color-interpolation-filters="sRGB" filterUnits="userSpaceOnUse">
      <feFlood flood-opacity="0" result="BackgroundImageFix"/>
      <feColorMatrix in="SourceAlpha" result="hardAlpha" values="0 0 0 0 0 0 0 0 0 0 0 0 0 0 0 0 0 0 127 0"/>
      <feOffset/>
      <feGaussianBlur stdDeviation="1"/>
      <feColorMatrix values="0 0 0 0 1 0 0 0 0 1 0 0 0 0 0.4375 0 0 0 0.5 0"/>
      <feBlend in2="BackgroundImageFix" result="effect1_dropShadow"/>
      <feBlend in="SourceGraphic" in2="effect1_dropShadow" result="shape"/>
    </filter>
    <filter id="filter1_d" width="34.349" height="35.081" x="33.428" y="51.284" color-interpolation-filters="sRGB" filterUnits="userSpaceOnUse">
      <feFlood flood-opacity="0" result="BackgroundImageFix"/>
      <feColorMatrix in="SourceAlpha" result="hardAlpha" values="0 0 0 0 0 0 0 0 0 0 0 0 0 0 0 0 0 0 127 0"/>
      <feOffset/>
      <feGaussianBlur stdDeviation="7.5"/>
      <feColorMatrix values="0 0 0 0 0.964706 0 0 0 0 0.333333 0 0 0 0 0.627451 0 0 0 1 0"/>
      <feBlend in2="BackgroundImageFix" result="effect1_dropShadow"/>
      <feBlend in="SourceGraphic" in2="effect1_dropShadow" result="shape"/>
    </filter>
    <filter id="filter2_d" width="34.48" height="35.233" x="29.905" y="51.284" color-interpolation-filters="sRGB" filterUnits="userSpaceOnUse">
      <feFlood flood-opacity="0" result="BackgroundImageFix"/>
      <feColorMatrix in="SourceAlpha" result="hardAlpha" values="0 0 0 0 0 0 0 0 0 0 0 0 0 0 0 0 0 0 127 0"/>
      <feOffset/>
      <feGaussianBlur stdDeviation="7.5"/>
      <feColorMatrix values="0 0 0 0 0.964706 0 0 0 0 0.333333 0 0 0 0 0.627451 0 0 0 1 0"/>
      <feBlend in2="BackgroundImageFix" result="effect1_dropShadow"/>
      <feBlend in="SourceGraphic" in2="effect1_dropShadow" result="shape"/>
    </filter>
    <filter id="filter3_d" width="34.349" height="35.081" x="33.428" y="63.629" color-interpolation-filters="sRGB" filterUnits="userSpaceOnUse">
      <feFlood flood-opacity="0" result="BackgroundImageFix"/>
      <feColorMatrix in="SourceAlpha" result="hardAlpha" values="0 0 0 0 0 0 0 0 0 0 0 0 0 0 0 0 0 0 127 0"/>
      <feOffset/>
      <feGaussianBlur stdDeviation="7.5"/>
      <feColorMatrix values="0 0 0 0 0.964706 0 0 0 0 0.333333 0 0 0 0 0.627451 0 0 0 1 0"/>
      <feBlend in2="BackgroundImageFix" result="effect1_dropShadow"/>
      <feBlend in="SourceGraphic" in2="effect1_dropShadow" result="shape"/>
    </filter>
    <filter id="filter4_d" width="34.48" height="35.233" x="29.905" y="63.629" color-interpolation-filters="sRGB" filterUnits="userSpaceOnUse">
      <feFlood flood-opacity="0" result="BackgroundImageFix"/>
      <feColorMatrix in="SourceAlpha" result="hardAlpha" values="0 0 0 0 0 0 0 0 0 0 0 0 0 0 0 0 0 0 127 0"/>
      <feOffset/>
      <feGaussianBlur stdDeviation="7.5"/>
      <feColorMatrix values="0 0 0 0 0.964706 0 0 0 0 0.333333 0 0 0 0 0.627451 0 0 0 1 0"/>
      <feBlend in2="BackgroundImageFix" result="effect1_dropShadow"/>
      <feBlend in="SourceGraphic" in2="effect1_dropShadow" result="shape"/>
    </filter>
    <filter id="filter5_d" width="34.349" height="35.081" x="33.428" y="75.974" color-interpolation-filters="sRGB" filterUnits="userSpaceOnUse">
      <feFlood flood-opacity="0" result="BackgroundImageFix"/>
      <feColorMatrix in="SourceAlpha" result="hardAlpha" values="0 0 0 0 0 0 0 0 0 0 0 0 0 0 0 0 0 0 127 0"/>
      <feOffset/>
      <feGaussianBlur stdDeviation="7.5"/>
      <feColorMatrix values="0 0 0 0 0.964706 0 0 0 0 0.333333 0 0 0 0 0.627451 0 0 0 1 0"/>
      <feBlend in2="BackgroundImageFix" result="effect1_dropShadow"/>
      <feBlend in="SourceGraphic" in2="effect1_dropShadow" result="shape"/>
    </filter>
    <filter id="filter6_d" width="34.48" height="35.233" x="29.905" y="75.974" color-interpolation-filters="sRGB" filterUnits="userSpaceOnUse">
      <feFlood flood-opacity="0" result="BackgroundImageFix"/>
      <feColorMatrix in="SourceAlpha" result="hardAlpha" values="0 0 0 0 0 0 0 0 0 0 0 0 0 0 0 0 0 0 127 0"/>
      <feOffset/>
      <feGaussianBlur stdDeviation="7.5"/>
      <feColorMatrix values="0 0 0 0 0.964706 0 0 0 0 0.333333 0 0 0 0 0.627451 0 0 0 1 0"/>
      <feBlend in2="BackgroundImageFix" result="effect1_dropShadow"/>
      <feBlend in="SourceGraphic" in2="effect1_dropShadow" result="shape"/>
    </filter>
    <clipPath id="clip0">
      <path fill="#fff" d="M0 0h96v96H0z"/>
    </clipPath>
  </defs>
</svg>
