<svg fill="none" viewBox="0 0 20 20">
  <defs/>
  <path fill="#00F0FF" d="M18.028 11.141c.487.07.943-.27.964-.762a9 9 0 10-4.879 7.626c.438-.225.555-.78.288-1.194-.267-.414-.817-.527-1.26-.313a7.217 7.217 0 114.075-6.37c-.008.492.325.944.812 1.013z"/>
  <path fill="#00F0FF" d="M11.527 10.175c.96-.526 1.52-1.492 1.47-2.524a2.69 2.69 0 00-.877-1.835 3.106 3.106 0 00-1.98-.813 3.116 3.116 0 00-2.213.766A2.702 2.702 0 007 7.781c0 .46.402.832.898.832s.899-.373.899-.832c0-.307.132-.593.373-.806.241-.213.557-.32.888-.307.614.027 1.114.493 1.142 1.06.022.412-.204.802-.589 1.015-.93.51-1.509 1.439-1.509 2.425 0 .459.402.832.898.832s.899-.373.899-.832c0-.407.233-.776.628-.993zM10 15a1 1 0 100-2 1 1 0 000 2z"/>
</svg>
