<svg width="16" height="16" viewBox="0 0 16 16" fill="none" xmlns="http://www.w3.org/2000/svg">
<path d="M13.7305 6.75737H10.5713C10.4172 6.75731 10.2657 6.79844 10.1322 6.87666C9.99856 6.95487 9.88747 7.06743 9.81001 7.20307C9.59447 7.59898 9.32002 7.95851 8.99641 8.26888C8.94488 8.31659 8.90863 8.37897 8.89236 8.44793C8.8761 8.51688 8.88057 8.58922 8.90519 8.65556C8.92981 8.72189 8.97345 8.77916 9.03045 8.81992C9.08744 8.86068 9.15515 8.88306 9.22479 8.88414H13.7305C13.8693 8.88414 14.0024 8.82799 14.1006 8.72806C14.1987 8.62812 14.2539 8.49257 14.2539 8.35124V7.29997C14.2551 7.22917 14.2425 7.15883 14.2168 7.09306C14.1911 7.02728 14.1527 6.96738 14.104 6.91687C14.0553 6.86635 13.9971 6.82623 13.933 6.79885C13.8689 6.77146 13.8 6.75736 13.7305 6.75737ZM15.4766 2.85266H8.64908C8.58078 2.85305 8.51412 2.87395 8.45742 2.91272C8.40072 2.9515 8.3565 3.00644 8.33031 3.07066C8.303 3.13552 8.29566 3.20729 8.30926 3.27648C8.32285 3.34568 8.35673 3.40905 8.40643 3.45823L9.653 4.72266C9.73387 4.8059 9.83022 4.8719 9.93641 4.91682C10.0426 4.96173 10.1565 4.98466 10.2715 4.98426H15.4766C15.6154 4.98426 15.7486 4.92812 15.8467 4.82818C15.9449 4.72824 16 4.5927 16 4.45136V3.38556C16 3.24422 15.9449 3.10868 15.8467 3.00874C15.7486 2.9088 15.6154 2.85266 15.4766 2.85266ZM11.9891 10.6912H7.43583C7.34327 10.6912 7.25443 10.7283 7.18853 10.7944C7.12264 10.8606 7.08499 10.9506 7.08374 11.0448V12.4691C7.08499 12.5634 7.12264 12.6533 7.18853 12.7195C7.25443 12.7857 7.34327 12.8228 7.43583 12.8228H11.9891C12.0578 12.8228 12.1259 12.809 12.1894 12.7822C12.2529 12.7554 12.3106 12.7162 12.3592 12.6667C12.4078 12.6172 12.4463 12.5585 12.4726 12.4938C12.4989 12.4291 12.5125 12.3598 12.5125 12.2899V11.2241C12.5125 11.0827 12.4573 10.9472 12.3592 10.8472C12.261 10.7473 12.1279 10.6912 11.9891 10.6912ZM7.77364 6.92209H5.44703V13.4671C5.44703 13.6084 5.39189 13.744 5.29374 13.8439C5.19559 13.9439 5.06247 14 4.92367 14H3.52485C3.38605 14 3.25293 13.9439 3.15478 13.8439C3.05663 13.744 3.00149 13.6084 3.00149 13.4671V6.89787H0.674887C0.539093 6.89211 0.407837 6.84647 0.296956 6.76644C0.186075 6.68641 0.100308 6.57542 0.0500057 6.44686C-0.000296984 6.3183 -0.0129861 6.17767 0.0134696 6.04193C0.0399252 5.90619 0.104395 5.78114 0.199099 5.68188L3.52961 2.31491C3.62635 2.21454 3.74189 2.13496 3.86938 2.08087C3.99687 2.02678 4.13373 1.99928 4.27184 2.00001C4.40984 2.00009 4.54645 2.02796 4.67383 2.082C4.80122 2.13604 4.91684 2.2152 5.01407 2.31491L8.34458 5.7061C8.4431 5.80628 8.51001 5.93412 8.53675 6.07325C8.56349 6.21238 8.54884 6.35647 8.49467 6.48707C8.4405 6.61767 8.34929 6.72884 8.2327 6.80634C8.11611 6.88384 7.97946 6.92414 7.84025 6.92209H7.77364Z" fill="#00F0FF"/>
</svg>
