<svg width="16" height="16" viewBox="0 0 16 16" fill="none" xmlns="http://www.w3.org/2000/svg">
<g clip-path="url(#clip0)">
<path d="M2.26944 9.24262L5.42867 9.24262C5.58278 9.24269 5.7342 9.20156 5.86779 9.12334C6.00138 9.04512 6.11247 8.93257 6.18993 8.79692C6.40547 8.40102 6.67992 8.04149 7.00353 7.73112C7.05506 7.68341 7.09131 7.62103 7.10758 7.55207C7.12384 7.48312 7.11937 7.41078 7.09475 7.34444C7.07013 7.2781 7.02649 7.22084 6.96949 7.18008C6.9125 7.13932 6.84479 7.11694 6.77515 7.11586L2.26945 7.11586C2.13064 7.11586 1.99752 7.17201 1.89937 7.27194C1.80122 7.37188 1.74608 7.50743 1.74608 7.64876L1.74608 8.70003C1.74481 8.77083 1.75742 8.84116 1.78315 8.90694C1.80889 8.97272 1.84724 9.03261 1.89596 9.08313C1.94469 9.13365 2.00281 9.17377 2.06694 9.20115C2.13106 9.22854 2.19991 9.24264 2.26944 9.24262ZM0.523304 13.1473L7.35085 13.1473C7.41916 13.1469 7.48582 13.1261 7.54252 13.0873C7.59922 13.0485 7.64344 12.9936 7.66963 12.9293C7.69693 12.8645 7.70427 12.7927 7.69068 12.7235C7.67709 12.6543 7.64321 12.5909 7.59351 12.5418L6.34694 11.2773C6.26607 11.1941 6.16972 11.1281 6.06353 11.0832C5.95733 11.0383 5.84341 11.0153 5.72842 11.0157L0.523304 11.0157C0.384499 11.0157 0.251379 11.0719 0.153229 11.1718C0.0550787 11.2718 -6.08085e-05 11.4073 -6.08209e-05 11.5486L-6.0914e-05 12.6144C-6.09264e-05 12.7558 0.0550786 12.8913 0.153229 12.9913C0.251379 13.0912 0.384499 13.1473 0.523304 13.1473ZM4.01083 5.30884L8.56411 5.30884C8.65667 5.30885 8.74551 5.27174 8.81141 5.20556C8.8773 5.13937 8.91495 5.04942 8.9162 4.95519L8.9162 3.53088C8.91495 3.43665 8.8773 3.3467 8.81141 3.28051C8.74551 3.21433 8.65667 3.17722 8.56411 3.17723L4.01083 3.17723C3.9421 3.17723 3.87404 3.19101 3.81054 3.21779C3.74705 3.24458 3.68935 3.28383 3.64075 3.33331C3.59215 3.3828 3.5536 3.44155 3.5273 3.5062C3.501 3.57086 3.48746 3.64015 3.48746 3.71013L3.48746 4.77594C3.48746 4.91727 3.5426 5.05282 3.64075 5.15276C3.7389 5.25269 3.87202 5.30884 4.01083 5.30884ZM8.2263 9.07791L10.5529 9.07791L10.5529 2.5329C10.5529 2.39157 10.608 2.25602 10.7062 2.15609C10.8043 2.05615 10.9375 2 11.0763 2L12.4751 2C12.6139 2 12.747 2.05615 12.8452 2.15609C12.9433 2.25603 12.9985 2.39157 12.9985 2.5329L12.9985 9.10213L15.3251 9.10213C15.4608 9.10789 15.5921 9.15353 15.703 9.23356C15.8139 9.31359 15.8996 9.42458 15.9499 9.55314C16.0002 9.6817 16.0129 9.82233 15.9865 9.95807C15.96 10.0938 15.8955 10.2189 15.8008 10.3181L12.4703 13.6851C12.3736 13.7855 12.258 13.865 12.1306 13.9191C12.0031 13.9732 11.8662 14.0007 11.7281 14C11.5901 13.9999 11.4535 13.972 11.3261 13.918C11.1987 13.864 11.0831 13.7848 10.9859 13.6851L7.65536 10.2939C7.55684 10.1937 7.48993 10.0659 7.46319 9.92675C7.43645 9.78762 7.4511 9.64353 7.50527 9.51293C7.55944 9.38233 7.65065 9.27116 7.76724 9.19366C7.88383 9.11616 8.02048 9.07586 8.15969 9.07791L8.2263 9.07791Z" fill="#F655A0"/>
</g>
<defs>
<clipPath id="clip0">
<rect width="16" height="16" fill="white" transform="translate(15.9999 16) rotate(-180)"/>
</clipPath>
</defs>
</svg>
