<svg xmlns="http://www.w3.org/2000/svg" fill="none" viewBox="0 0 30 30">
  <defs/>
  <path fill="#FFFF70" d="M20.3318 14.0364h-3.0181c-.1473-.0001-.2919.0385-.4196.1119-.1276.0734-.2337.179-.3077.3063-.2059.3714-.4681.7088-.7773 1-.0492.0447-.0838.1033-.0994.168-.0155.0647-.0113.1325.0123.1948.0235.0622.0652.116.1196.1542.0545.0382.1192.0592.1857.0603h4.3045c.1326 0 .2598-.0527.3536-.1465.0938-.0938.1464-.2209.1464-.3535v-.9864c.0012-.0664-.0108-.1324-.0354-.1941-.0246-.0618-.0612-.118-.1078-.1654-.0465-.0473-.102-.085-.1633-.1107-.0613-.0257-.127-.0389-.1935-.0389zM22 10.3728h-6.5227c-.0653.0003-.129.0199-.1831.0563-.0542.0364-.0964.088-.1215.1482-.026.0609-.033.1282-.0201.1931.013.0649.0454.1244.0929.1705l1.1909 1.1864c.0772.0781.1693.14.2707.1822.1015.0421.2103.0636.3202.0633H22c.1326 0 .2598-.0527.3536-.1465.0937-.0937.1464-.2209.1464-.3535v-1c0-.1326-.0527-.2598-.1464-.3536-.0938-.0938-.221-.1464-.3536-.1464zm-3.3318 7.3545h-4.35c-.0884 0-.1733.0348-.2363.0969-.0629.0621-.0989.1465-.1001.2349v1.3364c.0012.0884.0372.1728.1001.2349.063.0621.1479.0969.2363.0969h4.35c.0657 0 .1307-.0129.1913-.038.0607-.0252.1158-.062.1623-.1084.0464-.0465.0832-.1016.1083-.1622.0252-.0607.0381-.1257.0381-.1914v-1c0-.1326-.0527-.2598-.1464-.3535-.0938-.0938-.221-.1465-.3536-.1465zm-4.0273-3.5364h-2.2227v6.141c0 .1326-.0527.2597-.1464.3535-.0938.0938-.221.1465-.3536.1465h-1.3364c-.1326 0-.2597-.0527-.3535-.1465s-.1465-.2209-.1465-.3535v-6.1637H7.85911c-.12973-.0054-.25513-.0482-.36106-.1233-.10593-.0751-.18786-.1792-.23592-.2998-.04806-.1207-.06018-.2526-.03491-.38.02528-.1273.08687-.2447.17735-.3378l3.18183-3.15908c.0924-.09417.2028-.16884.3246-.21959.1218-.05075.2525-.07655.3845-.07586.1318.00007.2623.02621.384.07692.1217.05071.2322.12497.3251.21853L15.1864 13.05c.0941.094.158.214.1836.3445.0255.1306.0115.2657-.0402.3883-.0518.1225-.1389.2268-.2503.2995-.1114.0728-.2419.1106-.3749.1086h-.0637z"/>
  <path fill="#FFFF70" d="M1.65577 18.5554c-.6352.1692-1.017449.8235-.798396 1.4432.851666 2.4097 2.307536 4.5685 4.236536 6.265 2.22773 1.9593 4.98639 3.2139 7.92719 3.6053 2.9408.3914 5.9316-.0981 8.5942-1.4065 2.6627-1.3083 4.8775-3.3769 6.3645-5.9441 1.487-2.5671 2.1793-5.5176 1.9895-8.4782-.1899-2.9607-1.2534-5.79851-3.0561-8.15472-1.8027-2.3562-4.2636-4.12493-7.0716-5.082513-2.4313-.8291719-5.0284-1.017917-7.5423-.557742-.6466.11836-1.0239.775445-.8547 1.410645.1692.63519.821 1.00699 1.4693.89832 2.0569-.34476 4.1738-.1753 6.1594.50185 2.3623.80561 4.4327 2.29365 5.9493 4.27592 1.5166 1.98228 2.4113 4.36974 2.571 6.86054.1598 2.4908-.4227 4.973-1.6737 7.1328-1.251 2.1597-3.1143 3.9-5.3544 5.0008-2.2401 1.1007-4.7562 1.5125-7.2303 1.1832-2.4741-.3293-4.79501-1.3848-6.66921-3.0331-1.57532-1.3855-2.77559-3.1374-3.49992-5.0931-.22831-.6165-.87511-.9968-1.5103-.8276z"/>
</svg>
