<?xml version="1.0" encoding="utf-8"?>
<!-- Generator: Adobe Illustrator 24.1.1, SVG Export Plug-In . SVG Version: 6.00 Build 0)  -->
<svg version="1.1" id="Слой_1" xmlns="http://www.w3.org/2000/svg" xmlns:xlink="http://www.w3.org/1999/xlink" x="0px" y="0px"
	 viewBox="0 0 32 32" style="enable-background:new 0 0 32 32;" xml:space="preserve">
<style type="text/css">
	.st0{fill:#00F0FF;}
	.st1{fill:#F655A0;}
</style>
<g>
	<path class="st0" d="M14.1,15c0-0.1-0.1-0.1-0.2-0.1c-0.1,0-0.1,0-0.2,0h-3.2c-0.2,0-0.3,0-0.4,0.1C10,15,9.9,15.2,9.8,15.3
		C9.6,15.7,9.3,16,9,16.4c-0.1,0-0.1,0.1-0.1,0.2c0,0.1,0,0.1,0,0.2c0,0.1,0.1,0.1,0.1,0.2c0.1,0,0.1,0.1,0.2,0.1h4.5
		c0.1,0,0.3-0.1,0.4-0.2c0.1-0.1,0.2-0.2,0.2-0.4v-1.1c0-0.1,0-0.1,0-0.2C14.2,15.1,14.2,15.1,14.1,15z" fill="#00ffff"/>
	<path class="st0" d="M16,11.5c0-0.1-0.1-0.3-0.2-0.4c-0.1-0.1-0.2-0.2-0.4-0.2H8.6c-0.1,0-0.1,0-0.2,0.1s-0.1,0.1-0.1,0.2
		c0,0.1,0,0.1,0,0.2c0,0.1,0,0.1,0.1,0.2l1.2,1.3C9.7,12.9,9.8,13,9.9,13c0.1,0,0.2,0.1,0.3,0.1h5.2c0.1,0,0.3-0.1,0.4-0.2
		c0.1-0.1,0.2-0.2,0.2-0.4V11.5z" fill="#00ffff"/>
	<path class="st0" d="M12,18.8H7.4c-0.1,0-0.2,0-0.2,0.1c-0.1,0.1-0.1,0.2-0.1,0.3v1.4c0,0.1,0,0.2,0.1,0.3c0.1,0.1,0.2,0.1,0.2,0.1
		H12c0.1,0,0.1,0,0.2,0c0.1,0,0.1-0.1,0.2-0.1s0.1-0.1,0.1-0.2s0-0.1,0-0.2v-1.1c0-0.1-0.1-0.3-0.2-0.4C12.3,18.8,12.1,18.8,12,18.8
		z" fill="#00ffff"/>
	<path class="st0" d="M7.8,15c0.1,0,0.3,0,0.4-0.1c0.1-0.1,0.2-0.2,0.3-0.3c0.1-0.1,0.1-0.3,0-0.4c0-0.1-0.1-0.3-0.2-0.4L5,10.4
		c-0.1-0.1-0.2-0.2-0.3-0.2s-0.3-0.1-0.4-0.1c-0.1,0-0.3,0-0.4,0.1c-0.1,0.1-0.2,0.1-0.3,0.2l-3.3,3.4C0.1,13.9,0,14,0,14.1
		c0,0.1,0,0.3,0,0.4c0.1,0.1,0.1,0.2,0.2,0.3C0.4,14.9,0.5,15,0.7,15H3v6.6c0,0.1,0.1,0.3,0.2,0.4c0.1,0.1,0.2,0.2,0.4,0.2h1.4
		c0.1,0,0.3-0.1,0.4-0.2c0.1-0.1,0.2-0.2,0.2-0.4V15H7.8L7.8,15z" fill="#00ffff"/>
	<path class="st1" d="M17.9,17c0,0.1,0.1,0.1,0.2,0.1c0.1,0,0.1,0,0.2,0h3.2c0.2,0,0.3,0,0.4-0.1c0.1-0.1,0.2-0.2,0.3-0.3
		c0.2-0.4,0.5-0.8,0.8-1.1c0.1,0,0.1-0.1,0.1-0.2c0-0.1,0-0.1,0-0.2c0-0.1-0.1-0.1-0.1-0.2c-0.1,0-0.1-0.1-0.2-0.1h-4.5
		c-0.1,0-0.3,0.1-0.4,0.2c-0.1,0.1-0.2,0.2-0.2,0.4v1.1c0,0.1,0,0.1,0,0.2C17.8,16.9,17.8,16.9,17.9,17z" fill="#f655a0"/>
	<path class="st1" d="M22.3,19.2c-0.1-0.1-0.2-0.1-0.3-0.2c-0.1,0-0.2-0.1-0.3-0.1h-5.2c-0.1,0-0.3,0.1-0.4,0.2
		c-0.1,0.1-0.2,0.2-0.2,0.4v1.1c0,0.1,0.1,0.3,0.2,0.4c0.1,0.1,0.2,0.2,0.4,0.2h6.8c0.1,0,0.1,0,0.2-0.1c0.1,0,0.1-0.1,0.1-0.2
		c0-0.1,0-0.1,0-0.2c0-0.1,0-0.1-0.1-0.2L22.3,19.2z" fill="#f655a0"/>
	<path class="st1" d="M20,13.2h4.6c0.1,0,0.2,0,0.2-0.1c0.1-0.1,0.1-0.2,0.1-0.3v-1.4c0-0.1,0-0.2-0.1-0.3c-0.1-0.1-0.2-0.1-0.2-0.1
		H20c-0.1,0-0.1,0-0.2,0s-0.1,0.1-0.2,0.1s-0.1,0.1-0.1,0.2s0,0.1,0,0.2v1.1c0,0.1,0.1,0.3,0.2,0.4C19.7,13.2,19.9,13.2,20,13.2z" fill="#f655a0"/>
	<path class="st1" d="M32,17.5c-0.1-0.1-0.1-0.2-0.2-0.3c-0.1-0.1-0.2-0.1-0.4-0.1H29v-6.6c0-0.1-0.1-0.3-0.2-0.4
		c-0.1-0.1-0.2-0.2-0.4-0.2h-1.4c-0.1,0-0.3,0.1-0.4,0.2c-0.1,0.1-0.2,0.2-0.2,0.4V17h-2.3h-0.1c-0.1,0-0.3,0-0.4,0.1
		c-0.1,0.1-0.2,0.2-0.3,0.3c-0.1,0.1-0.1,0.3,0,0.4c0,0.1,0.1,0.3,0.2,0.4l3.3,3.4c0.1,0.1,0.2,0.2,0.3,0.2c0.1,0.1,0.3,0.1,0.4,0.1
		c0.1,0,0.3,0,0.4-0.1s0.2-0.1,0.3-0.2l3.3-3.4c0.1-0.1,0.2-0.2,0.2-0.4C32,17.7,32,17.6,32,17.5z" fill="#f655a0"/>
</g>
</svg>
