<?xml version="1.0" encoding="utf-8"?>
<!-- Generator: Adobe Illustrator 24.1.1, SVG Export Plug-In . SVG Version: 6.00 Build 0)  -->
<svg version="1.1" id="Ğ¡Ğ»Ğ¾Ğ¹_1" xmlns="http://www.w3.org/2000/svg" xmlns:xlink="http://www.w3.org/1999/xlink" x="0px" y="0px"
	 viewBox="0 0 19 20" style="enable-background:new 0 0 19 20;" xml:space="preserve">
<style type="text/css">
	.st0{}
</style>
<path class="st0" d="M0.8,4.2l2.8,5.6c0,0.1,0.1,0.2,0.1,0.3c0,0.1,0,0.2-0.1,0.3l-2.8,5.6c-0.2,0.3-0.2,0.7-0.2,1.1
	c0.1,0.4,0.2,0.7,0.5,1c0.3,0.3,0.6,0.5,1,0.5c0.4,0.1,0.8,0,1.1-0.2l14.1-6.7c0.3-0.2,0.6-0.4,0.8-0.7c0.2-0.3,0.3-0.6,0.3-1
	c0-0.3-0.1-0.7-0.3-1c-0.2-0.3-0.4-0.5-0.8-0.7l-14-6.7C3,1.4,2.6,1.4,2.2,1.5C1.8,1.5,1.4,1.7,1.2,2C0.9,2.3,0.7,2.6,0.6,3
	C0.6,3.4,0.6,3.8,0.8,4.2L0.8,4.2z M2.8,17.3c-0.1,0.1-0.3,0.1-0.4,0.1c-0.1,0-0.3-0.1-0.3-0.2C2,17,1.9,16.9,1.9,16.8
	c0-0.1,0-0.3,0.1-0.4l2.8-5.5c0.1-0.1,0.1-0.1,0.1-0.2l11.9,0L2.8,17.3z M2.8,2.7l13.9,6.6l-11.9,0c-0.1-0.1,0-0.2-0.1-0.2L1.9,3.6
	C1.9,3.5,1.9,3.3,1.9,3.2C1.9,3.1,2,3,2.1,2.9c0.1-0.1,0.2-0.2,0.3-0.2C2.5,2.7,2.7,2.7,2.8,2.7L2.8,2.7z"/>
</svg>
