<svg xmlns="http://www.w3.org/2000/svg" fill="none" viewBox="0 0 26 26">
  <defs/>
  <g clip-path="url(#clip0)">
    <path d="M4.9005 7.18921l2.75369 5.57739c.04598.0883.06999.1863.06999.2859 0 .0995-.02401.1976-.06999.2858L4.883 18.8982c-.17973.3478-.24437.7437-.1846 1.1306.05976.3869.24085.7448.51714 1.0222.27193.2783.62512.4633 1.00878.5283.38367.065.77806.0067 1.1265-.1666L21.411 14.7152c.3137-.1545.578-.3938.7627-.6908.1848-.2969.2827-.6397.2827-.9894 0-.3498-.0979-.6925-.2827-.9895-.1847-.297-.449-.5362-.7627-.6908L7.38582 4.65722c-.35104-.1734-.7476-.23242-1.13393-.16877-.38632.06366-.74299.24679-1.01984.52365-.27686.27685-.45999.63351-.52364 1.01984-.06366.38633-.00464.78289.16876 1.13393l.02333.02334zM6.85492 20.2984c-.1204.0589-.25634.0782-.38838.0551-.13203-.023-.25339-.0872-.34671-.1835-.09657-.0932-.16017-.2154-.18122-.348-.02105-.1326.0016-.2684.06454-.387l2.77119-5.5483c.0525-.0525.0525-.1458.08167-.2217l11.94819-.0116-13.94928 6.645zm0-14.52687L20.8042 12.4165H8.86768c-.05251-.0525-.04667-.1516-.08168-.2216L6.00315 6.63497c-.05711-.12003-.07564-.25479-.05307-.38578.02258-.13098.08516-.25177.17914-.34575.09399-.09399.21477-.15657.34576-.17914.13099-.02258.26575-.00404.38578.05306l-.00584-.00583z"/>
  </g>
  <defs>
    <clipPath id="clip0">
      <path d="M0 0h26v26H0z"/>
    </clipPath>
  </defs>
</svg>
