<svg fill="none" viewBox="0 0 24 24">
  <defs/>
  <path fill="#00F0FF" d="M19.297 13.272l-.666-.548a.938.938 0 010-1.448l.666-.548c.474-.39.595-1.058.288-1.59l-1.314-2.276a1.246 1.246 0 00-1.521-.546l-.807.303a.938.938 0 01-1.254-.724l-.142-.85A1.246 1.246 0 0013.314 4h-2.629c-.613 0-1.132.44-1.232 1.045l-.142.85a.938.938 0 01-1.254.724l-.807-.303a1.246 1.246 0 00-1.521.546L4.414 9.138c-.306.532-.185 1.2.289 1.59l.665.548a.938.938 0 010 1.448l-.665.548a1.246 1.246 0 00-.289 1.59l1.315 2.276c.307.531.946.76 1.52.546l.808-.303a.938.938 0 011.254.724l.142.85c.1.606.619 1.045 1.232 1.045h2.63c.613 0 1.131-.44 1.232-1.044l.142-.85a.938.938 0 011.253-.725l.808.303a1.246 1.246 0 001.52-.546l1.315-2.276c.307-.532.186-1.2-.288-1.59zm-2.109 3.241l-.807-.302a2.187 2.187 0 00-2.925 1.689l-.142.85h-2.629l-.141-.85a2.188 2.188 0 00-2.925-1.69l-.808.303-1.314-2.276.666-.548a2.187 2.187 0 000-3.378l-.666-.548 1.314-2.276.808.302c1.29.484 2.699-.332 2.925-1.689l.141-.85h2.63l.14.85a2.188 2.188 0 002.926 1.69l.807-.303 1.315 2.276-.666.548a2.187 2.187 0 000 3.378l.666.548-1.315 2.276zM12 8.917A3.087 3.087 0 008.916 12c0 1.7 1.384 3.083 3.084 3.083 1.7 0 3.083-1.383 3.083-3.083 0-1.7-1.383-3.083-3.083-3.083zm0 4.916A1.835 1.835 0 0110.166 12c0-1.01.823-1.833 1.834-1.833 1.01 0 1.833.822 1.833 1.833 0 1.01-.822 1.833-1.833 1.833z"/>
</svg>
