<svg width="27" height="27" viewBox="0 0 27 27" fill="none" xmlns="http://www.w3.org/2000/svg">
<g clip-path="url(#clip0)">
<path fill-rule="evenodd" clip-rule="evenodd" d="M23.2373 15.5754C24.133 16.4498 25.0783 17.2725 25.8815 18.2351C26.2364 18.6629 26.5723 19.1043 26.8293 19.6007C27.1935 20.3064 26.8637 21.083 26.2309 21.1252L22.2975 21.1234C21.283 21.2076 20.4737 20.7991 19.7932 20.1055C19.2486 19.5508 18.7442 18.9604 18.2206 18.387C18.0059 18.1526 17.7812 17.9321 17.5128 17.7578C16.9758 17.4092 16.5097 17.516 16.2029 18.076C15.8903 18.6456 15.8194 19.2763 15.7887 19.9111C15.7466 20.8374 15.4666 21.0809 14.5362 21.1233C12.5479 21.2171 10.6608 20.9162 8.90781 19.9132C7.36229 19.0289 6.16381 17.7806 5.12066 16.3673C3.08963 13.6154 1.53426 10.5915 0.136359 7.48295C-0.178298 6.78258 0.0518178 6.40662 0.824577 6.39331C2.10778 6.36839 3.3908 6.37016 4.67551 6.39154C5.19704 6.39917 5.5423 6.6983 5.74368 7.191C6.43793 8.89806 7.28742 10.5222 8.35372 12.0276C8.63769 12.4284 8.92724 12.8292 9.33957 13.1113C9.79572 13.4236 10.143 13.3201 10.3576 12.812C10.4938 12.4898 10.5534 12.1427 10.5841 11.7977C10.6858 10.6104 10.6991 9.42527 10.5208 8.24222C10.4114 7.50388 9.99549 7.02591 9.25875 6.88619C8.8828 6.81496 8.93877 6.67506 9.12081 6.46047C9.43697 6.09037 9.73433 5.85999 10.3271 5.85999H14.7725C15.4723 5.99811 15.6277 6.3125 15.7235 7.01668L15.7274 11.9546C15.7197 12.2272 15.8635 13.0362 16.3545 13.2166C16.7475 13.345 17.0066 13.0307 17.2424 12.7815C18.3067 11.6518 19.0663 10.3168 19.745 8.93443C20.0462 8.32659 20.3051 7.69532 20.5561 7.06459C20.742 6.59655 21.0338 6.36626 21.561 6.37646L25.8394 6.38027C25.9663 6.38027 26.0946 6.38214 26.2175 6.40316C26.9384 6.52603 27.136 6.83616 26.9133 7.54017C26.5625 8.6447 25.8799 9.56517 25.2124 10.4899C24.4989 11.4771 23.7358 12.4306 23.0283 13.4237C22.3782 14.3306 22.4298 14.7877 23.2373 15.5754Z" />
</g>
<defs>
<clipPath id="clip0">
<rect width="27" height="27" fill="white"/>
</clipPath>
</defs>
</svg>
