<svg width="32" height="32" viewBox="0 0 32 32" fill="none" xmlns="http://www.w3.org/2000/svg">
<path d="M31.5555 6.99561L16.5621 18.6246C16.3955 18.75 16.1978 18.8123 16 18.8123C15.8022 18.8123 15.6045 18.75 15.4379 18.6246L0.4445 6.99561C0.1665 7.43161 0 7.94542 0 8.49979V23.4998C0 25.0507 1.26163 26.3123 2.8125 26.3123H29.1875C30.7384 26.3123 32 25.0507 32 23.4998V8.49979C32 7.94542 31.8335 7.43161 31.5555 6.99561Z" fill="#00F0FF"/>
<path d="M29.1873 5.6875H2.81228C2.52366 5.6875 2.25059 5.74381 1.98828 5.82494L15.9998 16.7031L30.0113 5.82494C29.749 5.74381 29.4759 5.6875 29.1873 5.6875Z" fill="#00F0FF"/>
</svg>
