<svg width="27" height="27" viewBox="0 0 27 27" fill="none" xmlns="http://www.w3.org/2000/svg">
<g clip-path="url(#clip0)">
<path d="M25.9816 1.0197C25.3019 0.339797 24.4874 0 23.5384 0H3.46402C2.51476 0 1.70045 0.33992 1.02055 1.0197C0.340773 1.69929 0.000976562 2.51372 0.000976562 3.4628V23.537C0.000976562 24.486 0.340712 25.3006 1.02055 25.9802C1.70045 26.66 2.51494 27 3.46402 27H23.5382C24.4869 27 25.3017 26.66 25.9815 25.9802C26.6614 25.3006 27.0009 24.486 27.0009 23.537V3.4628C27.0008 2.51353 26.6614 1.69954 25.9816 1.0197ZM9.69561 9.72936C10.7561 8.70412 12.0305 8.19126 13.5188 8.19126C15.0186 8.19126 16.2988 8.70412 17.3595 9.72936C18.4202 10.7548 18.9503 11.9942 18.9503 13.4472C18.9503 14.9001 18.4202 16.1396 17.3595 17.1647C16.2988 18.1903 15.0191 18.7032 13.5188 18.7032C12.0306 18.7032 10.7563 18.1899 9.69561 17.1647C8.63491 16.1394 8.10462 14.9001 8.10462 13.4472C8.10462 11.9942 8.63491 10.7548 9.69561 9.72936ZM23.9427 22.8166C23.9427 23.1211 23.837 23.3758 23.6262 23.581C23.4149 23.7861 23.1633 23.8886 22.87 23.8886H4.07933C3.77469 23.8886 3.51962 23.7861 3.31472 23.581C3.10951 23.3763 3.007 23.1211 3.007 22.8166V11.4256H5.48544C5.25117 12.164 5.134 12.9317 5.134 13.7284C5.134 15.9789 5.95422 17.8975 7.59483 19.4857C9.23563 21.0733 11.2102 21.8675 13.5188 21.8675C15.0422 21.8675 16.4484 21.504 17.7379 20.7775C19.0269 20.0506 20.0458 19.0635 20.7963 17.8153C21.5464 16.5672 21.9215 15.2048 21.9215 13.7284C21.9215 12.9317 21.8039 12.1642 21.5696 11.4256H23.9429V22.8167H23.9427V22.8166ZM23.9427 7.11892C23.9427 7.45878 23.8256 7.74593 23.5908 7.98026C23.3566 8.21478 23.0696 8.33188 22.7295 8.33188H19.6711C19.3314 8.33188 19.044 8.21471 18.8097 7.98026C18.5754 7.74593 18.4583 7.45878 18.4583 7.11892V4.2188C18.4583 3.89064 18.5754 3.6065 18.8097 3.3662C19.044 3.12602 19.3315 3.00577 19.6711 3.00577H22.7295C23.0696 3.00577 23.3566 3.12596 23.5908 3.3662C23.8255 3.6065 23.9427 3.89064 23.9427 4.2188V7.11892Z"/>
</g>
<defs>
<clipPath id="clip0">
<rect width="27" height="27" fill="white"/>
</clipPath>
</defs>
</svg>
