<svg width="16" height="16" viewBox="0 0 16 16" fill="none" xmlns="http://www.w3.org/2000/svg">
<path d="M12.2438 15.9153L8.03424 13.5834L3.8247 15.9153C3.39555 16.1504 2.75675 15.8892 2.85503 15.2164L3.65763 10.2553L0.217923 6.72473C-0.178461 6.29361 -0.0212178 5.72533 0.584825 5.62735L5.29558 4.89576L7.39871 0.398454C7.50026 0.166567 7.73285 0 8.00148 0C8.2701 0 8.50269 0.133907 8.60424 0.398454L10.7074 4.89576L15.4181 5.62735C16.0668 5.75472 16.1487 6.28708 15.785 6.72473L12.4108 10.2553L13.2134 15.2164C13.3248 15.8075 12.7188 16.1635 12.2438 15.9153V15.9153ZM8.36838 12.2182L11.7098 14.0504L11.0743 10.0887C11.0415 9.8895 11.107 9.65434 11.2413 9.5237L14.0128 6.69207L10.2062 6.15971C9.97357 6.12705 9.8065 5.99314 9.70495 5.79391L8.03424 2.26335L6.36352 5.79391C6.26197 5.99314 6.0949 6.12705 5.86231 6.15971L2.05571 6.72473L4.82712 9.55636C4.96144 9.72293 5.02695 9.92216 4.9942 10.1214L4.35867 14.0831L7.70009 12.2508C8.00475 12.081 8.2701 12.1855 8.36838 12.2182Z" fill="#00F0FF"/>
</svg>
