<svg fill="none" viewBox="0 0 34 34">
  <defs/>
  <circle cx="17" cy="17" r="17" fill="#070B0E"/>
  <g clip-path="url(#clip0)">
    <path fill="#678" d="M10.067 19.85c-.59 0-1.067-.478-1.067-1.067v-2.066c0-.59.478-1.067 1.067-1.067.11 0 .2.09.2.2v3.8a.2.2 0 01-.2.2zm12.11-6.052A5.207 5.207 0 0017 9.083a5.207 5.207 0 00-5.178 4.715.261.261 0 00.261.285.262.262 0 00.27-.236A4.673 4.673 0 0117 9.617a4.673 4.673 0 014.646 4.23.262.262 0 00.27.236.262.262 0 00.262-.285zm1.756 1.852a.2.2 0 00-.2.2v3.8c0 .11.09.2.2.2.589 0 1.067-.477 1.067-1.067v-2.066c0-.59-.478-1.067-1.067-1.067zM12.4 14.617h-.533c-.589 0-1.067.478-1.067 1.066v4.134c0 .588.478 1.066 1.067 1.066h.533c.588 0 1.067-.478 1.067-1.066v-4.134c0-.588-.479-1.066-1.067-1.066zm9.733 0H21.6c-.588 0-1.067.478-1.067 1.066v4.134c0 .588.479 1.066 1.067 1.066h.533c.589 0 1.067-.478 1.067-1.066v-4.134c0-.588-.478-1.066-1.067-1.066zm1.826 5.766a.264.264 0 00-.259.264v.203a2.667 2.667 0 01-2.667 2.667h-.498a1.134 1.134 0 10-1.2 1.396 1.135 1.135 0 001.2-.863h.498a3.2 3.2 0 003.2-3.2v-.203a.264.264 0 00-.274-.264z"/>
  </g>
  <defs>
    <clipPath id="clip0">
      <path fill="#fff" d="M0 0h16v16H0z" transform="translate(9 9)"/>
    </clipPath>
  </defs>
</svg>
