<svg xmlns="http://www.w3.org/2000/svg" viewBox="0 0 20 20"><defs></defs><g id="Слой_2" data-name="Слой 2"><g id="Слой_1-2" data-name="Слой 1"><path class="cls-1" d="M8.73,10.06c-.23.65-.47,1.33-.7,2s-.47,1.42-.69,2.18c1-.17,2.07-.35,3.11-.56s2.14-.48,3.26-.76c-.3-.24-.65-.5-1.06-.77s-.84-.55-1.3-.81-.89-.5-1.35-.73a11.3,11.3,0,0,0-1.26-.58ZM14.32,6.6c-.65-.1-1.32-.17-2-.22s-1.4-.07-2.16-.07H9.62l.46.44h0c-.17.37-.36.8-.56,1.29s-.41,1-.63,1.61c1.3-.63,2.4-1.2,3.29-1.69A16.5,16.5,0,0,0,14.32,6.6ZM10,0A10,10,0,1,0,20,10,10,10,0,0,0,10,0Zm0,19.07A9.07,9.07,0,1,1,19.07,10,9.07,9.07,0,0,1,10,19.07ZM10,1.42A8.58,8.58,0,1,0,18.58,10,8.58,8.58,0,0,0,10,1.42ZM6.06,14.49h0Zm9.42-7.71a22.65,22.65,0,0,1-2.54,1.41c-1,.49-2.26,1-3.69,1.61a28.12,28.12,0,0,1,3.07,1.11,26.64,26.64,0,0,1,3,1.5h0l-.5,1.13h0c-1.06.19-2.21.36-3.46.51s-2.59.26-4.06.35c-.15.51-.29,1-.41,1.35s-.2.77-.27,1.08h0c0-.49.17-1.29.38-2.4l-.47,0-.43,0h0a3.11,3.11,0,0,0,.44-.08L7,14.32l0-.24c.13-.61.26-1.23.42-1.85S7.78,11,8,10.31L6,11H6l.82-.38c.34-.16.74-.35,1.21-.59.19-.71.38-1.38.57-2s.4-1.2.6-1.75l-1,.06-.85.1h0L7.22,5.1h.93c1.14,0,2.29,0,3.47.16s2.41.27,3.67.49h0l.18,1Z"/></g></g></svg>